<svg xmlns="http://www.w3.org/2000/svg" xmlns:xlink="http://www.w3.org/1999/xlink" aria-hidden="true" role="img" class="iconify iconify--logos" width="31.88" height="32" preserveAspectRatio="xMidYMid meet" viewBox="0 0 256 257"><defs><linearGradient id="IconifyId1813088fe1fbc01fb466" x1="-.828%" x2="57.636%" y1="7.652%" y2="78.411%"><stop offset="0%" stop-color="#FF00FF"></stop><stop offset="100%" stop-color="#FF8C00"></stop></linearGradient></defs><path fill="url(#IconifyId1813088fe1fbc01fb466)" d="M128.001 0c-35.309 0-64 28.654-64 64 0 35.346 28.691 64 64 64 35.309 0 64-28.654 64-64 0-35.346-28.691-64-64-64z"></path><path fill="#1E293B" d="M212.634 255.531c35.3 0 64-28.654 64-64 0-35.346-28.7-64-64-64-35.309 0-64 28.654-64 64 0 35.346 28.691 64 64 64z"></path><path fill="#10B981" d="M12.634 128c0 35.346 28.691 64 64 64s64-28.654 64-64c0-35.309-28.654-64-64-64S12.634 92.691 12.634 128z"></path></svg>
